<?xml version="1.0" encoding="UTF-8"?>
<svg id="c" data-name="neg_elements" xmlns="http://www.w3.org/2000/svg" width="521.767" height="521.767" viewBox="0 0 521.767 521.767">
  <defs>
    <style>
      .b {
        fill: #fff;
      }

      .a {
        fill: #c2e64d;
      }
    </style>
  </defs>
  <path class="b" d="M132.471,242.867c-.018-46.056,24.651-88.589,64.638-111.442,4.029-2.308,4.058-2.321,4.058-2.321,4.629-2.175,9.521-2.279,10.863-.233s-.121,5.529-3.258,7.737l-2.646,2.258c-35.488,30.215-39.763,83.477-9.549,118.965,30.215,35.488,83.477,39.763,118.965,9.549,35.488-30.215,39.763-83.477,9.549-118.965-2.923-3.433-6.116-6.626-9.549-9.549l-2.65-2.258c-3.137-2.208-4.604-5.692-3.258-7.738s6.25-1.942,10.863.233c0,0,.029,0,4.058,2.321,61.541,35.192,82.901,113.61,47.709,175.151-35.192,61.541-113.61,82.901-175.151,47.709-39.971-22.857-64.637-65.373-64.642-111.418ZM306.542,110.354l-37.271-25.329-8.442,44.263-8.454-44.263-37.271,25.329,25.333-37.267-44.254-8.442,44.267-8.442-25.333-37.271,37.271,25.333L260.83,0l8.442,44.267,37.271-25.333-25.333,37.271,44.267,8.442-44.267,8.442,25.333,37.267Z"/>
  <path class="a" d="M118.209,12.654s34.879,44.65,34.879,83.25-39.529,70.688-39.529,146.963,59.904,116.717,59.904,116.717c0,0-78.492-40.913-78.492-145.088,0-72.55,27.442-59.529,22.325-116.25-5.733,44.729-41.392,58.596-31.625,123.242,0,0-24.192-44.25-22.788-73.479,2.788-58.15,64.642-86.054,55.325-135.354ZM386.076,434.167c29.975-41.571,24.554-97.85,24.554-97.85-19.4,69.696-58.608,64.029-89.133,111.083,16.554-47.633,35.35-33.713,71.667-97.75,44.667-78.808,2.754-157.108,2.754-157.108,10.358,27,20.358,63.6-4.321,120.892-20.25,47.013-69.029,58.483-99.542,105.258-30.717,47.083,10.792,103.075,10.792,103.075,18.367-57.183,48.171-38.979,83.229-87.6ZM24.042,211.25c16.046,10.346,32.554-3.721,51.621,17.671-4.4-13.525-17.638-27.196-24.879-30.463-11.85-5.354-31.383,6.738-48.825-7.913,0,0,7.675,36.971,30.929,44.646,23.254,7.675,36.042-7.208,53.479,17.442-25.579-46.975-50.925-22.325-62.325-41.383ZM481.447,414.542c-15.354-25.304-43.75-11.621-58.029-56.75-.463,24.633,3.683,51.358,19.3,64.288,14.267,11.813,41.846,4.842,57.046,37.983,0,0,11.667-62.242-18.788-89.667-26.067-23.496-47.808-6.446-58.633-56.133,9.346,93.1,53.338,62.9,59.113,100.271l-.008.008Z"/>
</svg>