<?xml version="1.0" encoding="UTF-8"?>
<svg id="c" data-name="neg_elements" xmlns="http://www.w3.org/2000/svg" width="1950.01" height="571.434" viewBox="0 0 1950.01 571.434">
  <defs>
    <style>
      .b {
        fill: #fff;
      }

      .a {
        fill: #c2e64d;
      }
    </style>
  </defs>
  <path class="a" d="M118.209,62.321s34.879,44.65,34.879,83.25-39.529,70.688-39.529,146.963,59.904,116.717,59.904,116.717c0,0-78.492-40.913-78.492-145.088,0-72.55,27.442-59.529,22.325-116.25-5.733,44.729-41.392,58.596-31.625,123.242,0,0-24.192-44.25-22.788-73.479,2.788-58.15,64.642-86.054,55.325-135.354ZM386.076,483.834c29.975-41.571,24.554-97.85,24.554-97.85-19.4,69.696-58.608,64.029-89.133,111.083,16.554-47.633,35.35-33.713,71.667-97.75,44.667-78.808,2.754-157.108,2.754-157.108,10.358,27,20.358,63.6-4.321,120.892-20.25,47.013-69.029,58.483-99.542,105.258-30.717,47.083,10.792,103.075,10.792,103.075,18.367-57.183,48.171-38.979,83.229-87.6ZM24.042,260.917c16.046,10.346,32.554-3.721,51.621,17.671-4.4-13.525-17.638-27.196-24.879-30.463-11.85-5.354-31.383,6.738-48.825-7.913,0,0,7.675,36.971,30.929,44.646,23.254,7.675,36.042-7.208,53.479,17.442-25.579-46.975-50.925-22.325-62.325-41.383ZM481.447,464.209c-15.354-25.304-43.75-11.621-58.029-56.75-.463,24.633,3.683,51.358,19.3,64.288,14.267,11.813,41.846,4.842,57.046,37.983,0,0,11.667-62.242-18.788-89.667-26.067-23.496-47.808-6.446-58.633-56.133,9.346,93.1,53.338,62.9,59.113,100.271l-.008.008Z"/>
  <path class="b" d="M132.471,292.534c-.018-46.056,24.651-88.589,64.638-111.442,4.029-2.308,4.058-2.321,4.058-2.321,4.629-2.175,9.521-2.279,10.863-.233s-.121,5.529-3.258,7.737l-2.646,2.258c-35.488,30.215-39.763,83.477-9.549,118.965,30.215,35.488,83.477,39.763,118.965,9.549,35.488-30.215,39.763-83.477,9.549-118.965-2.923-3.433-6.116-6.626-9.549-9.549l-2.65-2.258c-3.137-2.208-4.604-5.692-3.258-7.738,1.346-2.046,6.25-1.942,10.863.233,0,0,.029,0,4.058,2.321,61.541,35.192,82.901,113.61,47.709,175.151-35.192,61.541-113.61,82.901-175.151,47.709-39.971-22.857-64.637-65.373-64.642-111.418ZM306.542,160.021l-37.271-25.329-8.442,44.263-8.454-44.263-37.271,25.329,25.333-37.267-44.254-8.442,44.267-8.442-25.333-37.271,37.271,25.333,8.442-44.267,8.442,44.267,37.271-25.333-25.333,37.271,44.267,8.442-44.267,8.442,25.333,37.267ZM595.392,181.862v35.487c0,5.845.59,10.092,1.774,12.733,1.181,2.646,3.34,4.42,6.471,5.323,3.132.907,8.105,1.357,14.926,1.357v4.801c-18.787-.418-33.122-.626-43.002-.626-6.543,0-15.656.14-27.346.417l-10.021.209v-4.175c4.452-.277,7.688-.835,9.707-1.67,2.016-.835,3.372-2.434,4.07-4.802.695-2.364,1.044-6.19,1.044-11.48v-103.539c0-5.287-.385-9.113-1.148-11.481-.767-2.364-2.123-3.966-4.07-4.801-1.95-.835-5.15-1.39-9.603-1.67v-4.175c7.933.417,19.899.626,35.905.626l24.006-.209c2.782-.137,5.981-.209,9.603-.209,20.594,0,36.218,3.726,46.863,11.168,10.646,7.446,15.97,17.431,15.97,29.956,0,7.654-2.088,14.997-6.263,22.022-4.175,7.029-11.272,12.91-21.292,17.64-10.021,4.732-23.312,7.097-39.871,7.097h-7.724ZM599.462,99.407c-1.602.976-2.681,2.714-3.235,5.219-.558,2.505-.835,6.263-.835,11.272v61.789h5.636c9.739,0,16.455-3.617,20.145-10.854,3.686-7.234,5.531-17.046,5.531-29.434,0-13.497-1.532-23.448-4.592-29.851-3.062-6.399-8.213-9.603-15.447-9.603-3.203,0-5.604.489-7.202,1.461ZM767.815,143.765c9.322,8.977,13.986,23.557,13.986,43.733s-4.664,34.724-13.986,43.628c-9.325,8.908-22.545,13.36-39.662,13.36s-30.34-4.452-39.662-13.36c-9.325-8.904-13.986-23.448-13.986-43.628s4.661-34.757,13.986-43.733c9.322-8.976,22.545-13.464,39.662-13.464s30.337,4.488,39.662,13.464ZM717.508,147.627c-2.646,8.768-3.967,22.059-3.967,39.871s1.321,31.07,3.967,39.767c2.642,8.698,6.19,13.046,10.646,13.046s8.001-4.348,10.646-13.046c2.642-8.696,3.966-21.951,3.966-39.767s-1.324-31.104-3.966-39.871c-2.646-8.768-6.194-13.151-10.646-13.151s-8.004,4.384-10.646,13.151ZM877.698,136.564c2.991,4.175,4.488,9.116,4.488,14.821,0,6.262-1.774,11.239-5.323,14.925-3.548,3.689-8.177,5.532-13.882,5.532-5.984,0-10.577-1.357-13.777-4.07-3.202-2.714-4.801-6.367-4.801-10.96,0-8.209,3.549-14.681,10.646-19.413-2.505,0-4.733.489-6.681,1.461-3.479,1.533-6.402,4.002-8.767,7.411-2.368,3.411-3.549,7.133-3.549,11.168v62.624c0,6.543,1.356,11.031,4.07,13.464,2.714,2.437,7.339,3.653,13.882,3.653v4.384c-1.811,0-3.34-.068-4.593-.209-14.612-.417-24.354-.626-29.225-.626-4.315,0-13.986.209-29.016.626-1.115.141-2.577.209-4.384.209v-4.384c4.312,0,7.339-1.076,9.08-3.235,1.739-2.156,2.609-6.087,2.609-11.794v-66.174c0-6.399-.87-11.063-2.609-13.985-1.741-2.923-4.769-4.384-9.08-4.384v-4.384c4.452.417,8.768.626,12.942.626,14.472,0,26.579-.972,36.322-2.923v15.03c5.287-10.438,14.263-15.656,26.928-15.656,6.817,0,11.723,2.088,14.717,6.263ZM938.504,133.224h20.457v4.175h-20.457v86.63c0,2.786.486,4.733,1.461,5.846.973,1.115,2.573,1.67,4.802,1.67,1.67,0,3.549-.486,5.636-1.462,2.088-.972,3.967-2.505,5.637-4.592l3.131,2.505c-6.402,10.995-16.282,16.491-29.643,16.491-9.602,0-16.771-2.368-21.501-7.098-2.922-2.923-4.837-6.54-5.74-10.855-.907-4.312-1.356-10.365-1.356-18.16v-70.975h-15.865v-4.175h15.865v-24.633c7.515,0,14.299-.73,20.353-2.191s11.794-3.79,17.222-6.993v33.817ZM1021.813,132.076c4.802,1.184,8.454,2.473,10.96,3.862,1.529.835,2.782,1.252,3.757,1.252,2.923,0,4.661-2.225,5.219-6.68h4.175c-.558,7.237-.835,19.763-.835,37.574h-4.175c-1.115-9.185-3.725-16.941-7.828-23.275-4.106-6.331-10.056-9.498-17.848-9.498-3.48,0-6.402,1.044-8.768,3.132-2.368,2.087-3.549,4.941-3.549,8.559,0,4.592,1.53,8.663,4.593,12.212,3.06,3.548,7.86,7.899,14.403,13.046.277.141,2.296,1.742,6.054,4.802,7.792,6.402,13.497,12.074,17.117,17.013,3.617,4.941,5.428,11.031,5.428,18.266,0,6.125-1.879,11.657-5.637,16.596-3.757,4.941-8.871,8.767-15.343,11.48-6.471,2.714-13.536,4.071-21.188,4.071-8.768,0-15.937-1.742-21.501-5.219-2.368-1.253-4.315-2.156-5.845-2.714-1.533-.555-3.063-.835-4.593-.835-2.646,0-4.593,2.437-5.845,7.306h-4.175c.554-7.932.835-21.847.835-41.749h4.175c1.252,11.412,4.312,20.598,9.185,27.555,4.87,6.96,10.992,10.438,18.37,10.438,3.477,0,6.366-.973,8.663-2.923,2.296-1.947,3.444-4.801,3.444-8.559,0-3.895-.803-7.375-2.401-10.438-1.601-3.06-3.548-5.809-5.845-8.245-2.296-2.434-6.021-5.949-11.168-10.542-5.845-5.428-10.3-9.739-13.359-12.942-3.062-3.2-5.672-6.921-7.828-11.168-2.159-4.243-3.235-8.94-3.235-14.091,0-5.981,1.807-11.272,5.427-15.864,3.617-4.593,8.419-8.105,14.404-10.542,5.981-2.434,12.453-3.653,19.413-3.653,5.428,0,10.542.594,15.343,1.774ZM1232.123,233.945c1.738,2.159,4.766,3.235,9.081,3.235v4.384c-15.03-.555-24.772-.835-29.225-.835s-13.641.28-27.555.835v-4.384c2.782,0,4.729-1.044,5.845-3.131,1.112-2.088,1.67-6.054,1.67-11.898v-67.844c0-4.452-.803-7.756-2.4-9.915-1.602-2.156-4.211-3.235-7.828-3.235s-6.925,1.532-9.916,4.592c-2.994,3.062-4.837,6.68-5.531,10.855.277,3.34.417,6.334.417,8.976v56.571c0,5.845.695,9.811,2.088,11.898,1.39,2.087,3.895,3.131,7.515,3.131v4.384c-13.918-.555-22.962-.835-27.137-.835-4.456,0-13.641.28-27.555.835v-4.384c2.782,0,4.729-1.076,5.845-3.235,1.112-2.156,1.67-6.087,1.67-11.794v-67.844c0-4.452-.626-7.756-1.879-9.915-1.253-2.156-3.34-3.235-6.263-3.235-4.038,0-7.551,1.428-10.541,4.279-2.995,2.854-4.488,6.438-4.488,10.75v65.965c0,5.845.555,9.811,1.67,11.898,1.112,2.087,3.06,3.131,5.845,3.131v4.384c-12.806-.555-21.292-.835-25.467-.835-4.733,0-15.171.28-31.312.835v-4.384c4.312,0,7.339-1.076,9.08-3.235,1.739-2.156,2.609-6.087,2.609-11.794v-66.174c0-6.399-.87-11.063-2.609-13.985-1.741-2.923-4.769-4.384-9.08-4.384v-4.384c4.452.417,8.768.626,12.942.626,14.472,0,26.579-.972,36.322-2.923v15.03c5.845-10.438,16.21-15.656,31.104-15.656,11.132,0,18.996,2.785,23.588,8.35,2.088,2.506,3.617,5.777,4.593,9.812,3.477-6.68,8.105-11.377,13.882-14.091,5.773-2.713,12.697-4.07,20.771-4.07,11.132,0,18.996,2.785,23.588,8.35,2.088,2.506,3.617,5.881,4.593,10.125.972,4.246,1.461,9.847,1.461,16.804v56.571c0,5.707.868,9.638,2.609,11.794ZM1338.039,143.765c9.322,8.977,13.986,23.557,13.986,43.733s-4.664,34.724-13.986,43.628c-9.325,8.908-22.545,13.36-39.662,13.36s-30.34-4.452-39.662-13.36c-9.325-8.904-13.986-23.448-13.986-43.628s4.661-34.757,13.986-43.733c9.322-8.976,22.545-13.464,39.662-13.464s30.337,4.488,39.662,13.464ZM1287.731,147.627c-2.646,8.768-3.967,22.059-3.967,39.871s1.321,31.07,3.967,39.767c2.642,8.698,6.19,13.046,10.646,13.046s8.001-4.348,10.646-13.046c2.642-8.696,3.966-21.951,3.966-39.767s-1.324-31.104-3.966-39.871c-2.646-8.768-6.194-13.151-10.646-13.151s-8.004,4.384-10.646,13.151ZM1467.522,218.81c0,6.403.868,11.064,2.609,13.986,1.738,2.923,4.766,4.384,9.081,4.384v4.384c-4.315-.418-8.631-.626-12.942-.626-14.476,0-26.583.972-36.322,2.922v-15.029c-6.263,10.438-17.326,15.656-33.191,15.656-11.135,0-18.996-2.786-23.588-8.351-2.088-2.505-3.621-5.877-4.593-10.124-.976-4.243-1.461-9.844-1.461-16.804v-53.231c0-6.399-.871-11.063-2.609-13.985-1.742-2.923-4.769-4.384-9.081-4.384v-4.384c4.312.417,8.628.626,12.942.626,14.473,0,26.58-.972,36.322-2.923v89.553c0,4.456.799,7.76,2.4,9.916,1.599,2.159,4.208,3.235,7.828,3.235,4.035,0,7.548-1.425,10.542-4.279,2.991-2.851,4.488-6.436,4.488-10.75v-62.625c0-6.399-.871-11.063-2.609-13.985-1.742-2.923-4.769-4.384-9.081-4.384v-4.384c4.312.417,8.628.626,12.942.626,14.473,0,26.58-.972,36.322-2.923v87.883ZM1531.545,133.224h20.457v4.175h-20.457v86.63c0,2.786.486,4.733,1.461,5.846.973,1.115,2.573,1.67,4.802,1.67,1.67,0,3.549-.486,5.636-1.462,2.088-.972,3.967-2.505,5.637-4.592l3.131,2.505c-6.402,10.995-16.282,16.491-29.643,16.491-9.602,0-16.771-2.368-21.501-7.098-2.922-2.923-4.837-6.54-5.74-10.855-.907-4.312-1.356-10.365-1.356-18.16v-70.975h-15.865v-4.175h15.865v-24.633c7.515,0,14.299-.73,20.353-2.191s11.794-3.79,17.222-6.993v33.817ZM1605.021,145.958c6.263-10.438,17.326-15.656,33.191-15.656,11.132,0,18.996,2.785,23.589,8.35,2.087,2.506,3.617,5.881,4.592,10.125.973,4.246,1.462,9.847,1.462,16.804v56.571c0,5.707.867,9.638,2.609,11.794,1.738,2.159,4.765,3.235,9.08,3.235v4.384c-15.03-.555-24.772-.835-29.225-.835-4.732,0-14.612.28-29.643.835v-4.384c3.617,0,6.122-1.076,7.516-3.235,1.389-2.156,2.087-6.087,2.087-11.794v-67.844c0-4.452-.802-7.756-2.4-9.915-1.602-2.156-4.211-3.235-7.828-3.235-4.038,0-7.551,1.428-10.542,4.279-2.994,2.854-4.488,6.438-4.488,10.75v65.965c0,5.707.695,9.638,2.088,11.794,1.39,2.159,3.895,3.235,7.515,3.235v4.384c-13.917-.555-23.103-.835-27.555-.835-4.732,0-15.17.28-31.312.835v-4.384c4.312,0,7.339-1.076,9.08-3.235,1.738-2.156,2.609-6.087,2.609-11.794v-118.778c0-6.399-.871-11.063-2.609-13.985-1.741-2.923-4.769-4.384-9.08-4.384v-4.384c4.312.417,8.627.626,12.942.626,14.472,0,26.579-.972,36.321-2.923v67.635ZM640.063,295.794c5.845,2.368,11.55,5.708,17.117,10.02,1.39,1.253,2.714,1.879,3.967,1.879,2.782,0,4.592-4.175,5.427-12.524h4.802c-.558,9.883-.835,27.277-.835,52.187h-4.802c-.975-11.132-2.785-19.899-5.427-26.303-2.646-6.399-7.238-11.758-13.778-16.073-6.542-4.175-13.014-6.263-19.413-6.263-14.476,0-24.632,6.961-30.478,20.875-5.845,13.918-8.767,30.549-8.767,49.891s2.922,35.977,8.767,49.891c5.846,13.918,16.002,20.875,30.478,20.875,6.399,0,12.871-2.087,19.413-6.263,6.54-4.034,11.133-9.462,13.778-16.282,2.642-6.816,4.452-16.491,5.427-29.016h4.802c0,26.025.277,44.117.835,54.274h-4.802c-.417-4.452-1.011-7.619-1.774-9.498-.767-1.879-1.846-2.818-3.235-2.818-1.115,0-2.577.558-4.384,1.67-6.263,4.456-12.247,7.828-17.952,10.125-5.708,2.296-12.597,3.444-20.666,3.444-15.728,0-29.505-2.991-41.332-8.977-11.83-5.981-21.015-14.645-27.555-25.989-6.543-11.341-9.812-24.873-9.812-40.602,0-15.307,3.34-28.875,10.021-40.705,6.68-11.827,16.002-21.013,27.972-27.555,11.968-6.54,25.604-9.812,40.915-9.812,8.35,0,15.447,1.184,21.292,3.549ZM731.493,423.548c0,5.707.868,9.638,2.609,11.794,1.739,2.159,4.766,3.235,9.081,3.235v4.384c-15.03-.555-24.913-.835-29.643-.835s-15.17.28-31.312.835v-4.384c4.312,0,7.339-1.076,9.08-3.235,1.738-2.156,2.609-6.087,2.609-11.794v-118.778c0-6.399-.871-11.063-2.609-13.985-1.741-2.923-4.769-4.384-9.08-4.384v-4.384c4.312.417,8.627.626,12.942.626,14.472,0,26.579-.972,36.321-2.923v143.828ZM800.003,423.548c0,5.707.867,9.638,2.609,11.794,1.738,2.159,4.765,3.235,9.08,3.235v4.384c-15.029-.555-24.912-.835-29.642-.835s-15.171.28-31.312.835v-4.384c4.312,0,7.339-1.076,9.08-3.235,1.739-2.156,2.609-6.087,2.609-11.794v-66.174c0-6.399-.87-11.063-2.609-13.985-1.741-2.923-4.769-4.384-9.08-4.384v-4.384c4.452.417,8.768.626,12.942.626,14.472,0,26.579-.972,36.322-2.923v91.224ZM796.767,284.313c3.967,3.062,5.95,7.515,5.95,13.36s-1.983,10.3-5.95,13.359c-3.966,3.062-9.569,4.593-16.804,4.593-7.378,0-13.014-1.53-16.908-4.593-3.898-3.06-5.846-7.515-5.846-13.359s1.947-10.298,5.846-13.36c3.895-3.06,9.53-4.593,16.908-4.593,7.234,0,12.838,1.533,16.804,4.593ZM994.72,435.342c1.738,2.159,4.766,3.235,9.081,3.235v4.384c-15.03-.555-24.772-.835-29.225-.835s-13.641.28-27.555.835v-4.384c2.782,0,4.729-1.044,5.845-3.131,1.112-2.088,1.67-6.054,1.67-11.898v-67.844c0-4.452-.803-7.756-2.4-9.915-1.602-2.156-4.211-3.235-7.828-3.235s-6.925,1.532-9.916,4.592c-2.994,3.062-4.837,6.68-5.531,10.855.277,3.34.417,6.334.417,8.976v56.571c0,5.845.695,9.811,2.088,11.898,1.39,2.087,3.895,3.131,7.515,3.131v4.384c-13.918-.555-22.962-.835-27.137-.835-4.456,0-13.641.28-27.555.835v-4.384c2.782,0,4.729-1.076,5.845-3.235,1.112-2.156,1.67-6.087,1.67-11.794v-67.844c0-4.452-.626-7.756-1.879-9.915-1.253-2.156-3.34-3.235-6.263-3.235-4.038,0-7.551,1.428-10.541,4.279-2.995,2.854-4.488,6.438-4.488,10.75v65.965c0,5.845.555,9.811,1.67,11.898,1.112,2.087,3.06,3.131,5.845,3.131v4.384c-12.806-.555-21.292-.835-25.467-.835-4.733,0-15.171.28-31.312.835v-4.384c4.312,0,7.339-1.076,9.08-3.235,1.739-2.156,2.609-6.087,2.609-11.794v-66.174c0-6.399-.87-11.063-2.609-13.985-1.741-2.923-4.769-4.384-9.08-4.384v-4.384c4.452.417,8.768.626,12.942.626,14.472,0,26.579-.972,36.322-2.923v15.03c5.845-10.438,16.21-15.656,31.104-15.656,11.132,0,18.996,2.785,23.588,8.35,2.088,2.506,3.617,5.777,4.593,9.812,3.477-6.68,8.105-11.377,13.882-14.091,5.773-2.713,12.697-4.07,20.771-4.07,11.132,0,18.996,2.785,23.588,8.35,2.088,2.506,3.617,5.881,4.593,10.125.972,4.246,1.461,9.847,1.461,16.804v56.571c0,5.707.868,9.638,2.609,11.794ZM1015.153,437.221c-4.524-4.802-6.784-10.819-6.784-18.057,0-6.263,1.634-11.445,4.905-15.552,3.269-4.104,7.13-7.271,11.586-9.498,4.452-2.225,10.229-4.521,17.325-6.889,7.516-2.505,13.012-4.802,16.491-6.889,3.478-2.088,5.219-5.011,5.219-8.768v-18.579c0-4.452-1.115-8.418-3.34-11.898-2.228-3.477-6.054-5.219-11.481-5.219-4.314,0-8.213,1.185-11.689,3.549,4.729,1.67,8.245,4.143,10.542,7.411,2.296,3.271,3.444,6.924,3.444,10.959,0,5.428-1.915,9.778-5.741,13.047-3.829,3.271-8.454,4.905-13.881,4.905s-9.707-1.702-12.839-5.114c-3.131-3.408-4.696-7.757-4.696-13.047,0-4.175,1.044-7.792,3.131-10.854,2.088-3.06,5.355-5.846,9.812-8.351,7.792-4.452,18.924-6.68,33.399-6.68,7.652,0,14.264.73,19.831,2.192,5.564,1.461,10.297,4.21,14.195,8.245,2.782,2.923,4.625,6.575,5.531,10.959.903,4.384,1.357,10.474,1.357,18.266v55.944c0,3.48.241,5.845.73,7.098.485,1.252,1.356,1.879,2.609,1.879.972,0,2.016-.313,3.131-.939,1.112-.626,2.156-1.357,3.131-2.192l2.088,3.549c-5.985,5.15-14.544,7.724-25.676,7.724-8.35,0-14.195-1.429-17.535-4.279s-5.15-6.712-5.427-11.585c-6.543,10.577-16.283,15.864-29.226,15.864-8.907,0-15.623-2.4-20.144-7.201ZM1063.895,424.174v-44.046c-1.252,2.087-3.549,4.801-6.889,8.141-3.757,3.621-6.611,7.134-8.559,10.542-1.95,3.412-2.922,8.037-2.922,13.882,0,10.02,3.548,15.03,10.646,15.03,2.923,0,5.496-1.181,7.724-3.549ZM1160.898,334.622h20.457v4.175h-20.457v86.63c0,2.786.486,4.733,1.461,5.846.973,1.115,2.573,1.67,4.802,1.67,1.67,0,3.549-.486,5.636-1.462,2.088-.972,3.967-2.505,5.637-4.592l3.131,2.505c-6.402,10.995-16.282,16.491-29.643,16.491-9.602,0-16.771-2.368-21.501-7.098-2.922-2.923-4.837-6.54-5.74-10.855-.907-4.312-1.356-10.365-1.356-18.16v-70.975h-15.865v-4.175h15.865v-24.633c7.515,0,14.299-.73,20.353-2.191s11.794-3.79,17.222-6.993v33.817ZM1271.972,409.144l3.549,1.253c-3.062,9.742-8.246,18.093-15.552,25.05-7.307,6.96-16.667,10.438-28.076,10.438-14.613,0-26.303-4.521-35.07-13.569-8.768-9.044-13.151-23.517-13.151-43.419,0-19.064,4.906-33.364,14.717-42.897,9.812-9.531,22.786-14.3,38.932-14.3,26.303,0,39.453,15.588,39.453,46.76h-53.856c-.141,1.67-.209,4.175-.209,7.515,0,13.36,2.329,22.894,6.993,28.599,4.661,5.708,10.333,8.559,17.013,8.559,10.157,0,18.579-4.661,25.259-13.986ZM1222.081,374.492h24.215c.137-11.132-.662-20.248-2.4-27.346-1.742-7.098-4.42-10.646-8.037-10.646-7.796,0-12.388,12.665-13.777,37.991ZM1468.713,435.342c2.156,2.159,4.279,3.308,6.367,3.444v4.175c-10.021-.418-22.686-.626-37.992-.626-15.865,0-27.555.208-35.07.626v-4.175c5.288-.277,9.045-.939,11.272-1.983,2.225-1.044,3.34-2.887,3.34-5.531,0-2.506-.835-5.846-2.505-10.021l-12.315-34.234h-42.167l-3.549,9.394c-4.593,11.83-6.889,20.875-6.889,27.138,0,5.707,1.598,9.602,4.801,11.689,3.2,2.088,7.933,3.271,14.195,3.549v4.175c-10.438-.418-19.554-.626-27.347-.626-6.543,0-11.898.208-16.073.626v-4.175c3.48-.555,6.748-2.714,9.812-6.472,3.06-3.757,6.19-9.739,9.394-17.952l46.342-119.194c4.452.28,8.142.417,11.063.417,2.782,0,6.399-.137,10.855-.417l50.517,130.258c1.807,4.456,3.79,7.76,5.949,9.916ZM1400.348,382.842l-18.996-52.188-20.039,52.188h39.035ZM1542.397,333.473c4.802,1.184,8.731,2.682,11.794,4.488,3.895,2.228,6.958,5.219,9.186,8.976,2.225,3.758,3.34,8.005,3.34,12.734,0,5.845-1.879,10.682-5.637,14.508-3.757,3.829-8.559,5.74-14.403,5.74-5.985,0-10.682-1.702-14.09-5.114-3.412-3.408-5.114-7.965-5.114-13.673,0-5.01,1.634-9.427,4.905-13.256,3.268-3.825,7.339-6.366,12.212-7.619-2.088-1.67-4.873-2.505-8.351-2.505-8.907,0-15.17,4.769-18.787,14.299-3.62,9.534-5.428,20.843-5.428,33.922,0,13.36,2.506,22.894,7.516,28.599,5.01,5.708,11.2,8.559,18.578,8.559,10.157,0,18.579-4.661,25.259-13.986l3.549,1.253c-3.063,9.742-8.246,18.093-15.552,25.05-7.307,6.96-16.667,10.438-28.077,10.438-15.17,0-27.346-4.521-36.53-13.569-9.186-9.044-13.777-23.517-13.777-43.419,0-19.064,4.905-33.364,14.717-42.897,9.811-9.531,22.786-14.3,38.931-14.3,5.705,0,10.96.594,15.761,1.774ZM1622.472,334.622h20.457v4.175h-20.457v86.63c0,2.786.486,4.733,1.461,5.846.973,1.115,2.573,1.67,4.802,1.67,1.67,0,3.549-.486,5.636-1.462,2.088-.972,3.967-2.505,5.637-4.592l3.131,2.505c-6.402,10.995-16.282,16.491-29.643,16.491-9.602,0-16.771-2.368-21.501-7.098-2.922-2.923-4.837-6.54-5.74-10.855-.907-4.312-1.356-10.365-1.356-18.16v-70.975h-15.865v-4.175h15.865v-24.633c7.515,0,14.299-.73,20.353-2.191s11.794-3.79,17.222-6.993v33.817ZM1698.162,423.548c0,5.707.867,9.638,2.609,11.794,1.738,2.159,4.765,3.235,9.08,3.235v4.384c-15.029-.555-24.912-.835-29.642-.835s-15.171.28-31.312.835v-4.384c4.312,0,7.339-1.076,9.08-3.235,1.739-2.156,2.609-6.087,2.609-11.794v-66.174c0-6.399-.87-11.063-2.609-13.985-1.741-2.923-4.769-4.384-9.08-4.384v-4.384c4.452.417,8.768.626,12.942.626,14.472,0,26.579-.972,36.322-2.923v91.224ZM1694.926,284.313c3.967,3.062,5.95,7.515,5.95,13.36s-1.983,10.3-5.95,13.359c-3.966,3.062-9.569,4.593-16.804,4.593-7.378,0-13.014-1.53-16.908-4.593-3.898-3.06-5.846-7.515-5.846-13.359s1.947-10.298,5.846-13.36c3.895-3.06,9.53-4.593,16.908-4.593,7.234,0,12.838,1.533,16.804,4.593ZM1807.25,345.163c9.322,8.977,13.986,23.557,13.986,43.733s-4.664,34.724-13.986,43.628c-9.325,8.908-22.545,13.36-39.662,13.36s-30.34-4.452-39.662-13.36c-9.325-8.904-13.986-23.448-13.986-43.628s4.661-34.757,13.986-43.733c9.322-8.976,22.545-13.464,39.662-13.464s30.337,4.488,39.662,13.464ZM1756.942,349.025c-2.646,8.768-3.967,22.059-3.967,39.871s1.321,31.07,3.967,39.767c2.642,8.698,6.19,13.046,10.646,13.046s8.001-4.348,10.646-13.046c2.642-8.696,3.966-21.951,3.966-39.767s-1.324-31.104-3.966-39.871c-2.646-8.768-6.194-13.151-10.646-13.151s-8.004,4.384-10.646,13.151ZM1932.267,340.048c2.087,2.506,3.617,5.881,4.593,10.125.972,4.246,1.461,9.847,1.461,16.804v56.571c0,5.707.867,9.638,2.609,11.794,1.738,2.159,4.765,3.235,9.08,3.235v4.384c-15.029-.555-24.772-.835-29.225-.835-4.732,0-14.612.28-29.642.835v-4.384c3.617,0,6.122-1.076,7.515-3.235,1.39-2.156,2.087-6.087,2.087-11.794v-67.844c0-4.452-.802-7.756-2.4-9.915-1.602-2.156-4.211-3.235-7.828-3.235-4.038,0-7.551,1.428-10.541,4.279-2.995,2.854-4.488,6.438-4.488,10.75v65.965c0,5.707.694,9.638,2.087,11.794,1.39,2.159,3.895,3.235,7.516,3.235v4.384c-13.918-.555-23.103-.835-27.555-.835-4.733,0-15.171.28-31.312.835v-4.384c4.312,0,7.339-1.076,9.08-3.235,1.739-2.156,2.609-6.087,2.609-11.794v-66.174c0-6.399-.87-11.063-2.609-13.985-1.741-2.923-4.769-4.384-9.08-4.384v-4.384c4.452.417,8.768.626,12.942.626,14.472,0,26.579-.972,36.322-2.923v15.03c6.262-10.438,17.326-15.656,33.19-15.656,11.133,0,18.996,2.785,23.589,8.35Z"/>
</svg>