<?xml version="1.0" encoding="UTF-8"?>
<svg xmlns="http://www.w3.org/2000/svg" width="4086.717" height="521.767" viewBox="0 0 4086.717 521.767">
  <defs>
    <style>
      .e {
        fill: none;
      }

      .b {
        fill: #9dc743;
      }

      .a {
        fill: #1d3e71;
      }
    </style>
  </defs>
  <g id="c" data-name="pos_elements">
    <path class="b" d="M118.209,12.654s34.879,44.65,34.879,83.25-39.529,70.688-39.529,146.963,59.904,116.717,59.904,116.717c0,0-78.492-40.913-78.492-145.088,0-72.55,27.442-59.529,22.325-116.25-5.733,44.729-41.392,58.596-31.625,123.242,0,0-24.192-44.25-22.788-73.479,2.788-58.15,64.642-86.054,55.325-135.354ZM386.076,434.167c29.975-41.571,24.554-97.85,24.554-97.85-19.4,69.696-58.608,64.029-89.133,111.083,16.554-47.633,35.35-33.713,71.667-97.75,44.667-78.808,2.754-157.108,2.754-157.108,10.358,27,20.358,63.6-4.321,120.892-20.25,47.013-69.029,58.483-99.542,105.258-30.717,47.083,10.792,103.075,10.792,103.075,18.367-57.183,48.171-38.979,83.229-87.6ZM24.042,211.25c16.046,10.346,32.554-3.721,51.621,17.671-4.4-13.525-17.638-27.196-24.879-30.463-11.85-5.354-31.383,6.738-48.825-7.913,0,0,7.675,36.971,30.929,44.646,23.254,7.675,36.042-7.208,53.479,17.442-25.579-46.975-50.925-22.325-62.325-41.383ZM481.447,414.542c-15.354-25.304-43.75-11.621-58.029-56.75-.463,24.633,3.683,51.358,19.3,64.288,14.267,11.813,41.846,4.842,57.046,37.983,0,0,11.667-62.242-18.788-89.667-26.067-23.496-47.808-6.446-58.633-56.133,9.346,93.1,53.338,62.9,59.113,100.271l-.008.008Z"/>
    <path class="a" d="M132.471,242.867c-.018-46.056,24.651-88.589,64.638-111.442,4.029-2.308,4.058-2.321,4.058-2.321,4.629-2.175,9.521-2.279,10.863-.233s-.121,5.529-3.258,7.737l-2.646,2.258c-35.488,30.215-39.763,83.477-9.549,118.965,30.215,35.488,83.477,39.763,118.965,9.549,35.488-30.215,39.763-83.477,9.549-118.965-2.923-3.433-6.116-6.626-9.549-9.549l-2.65-2.258c-3.137-2.208-4.604-5.692-3.258-7.738s6.25-1.942,10.863.233c0,0,.029,0,4.058,2.321,61.541,35.192,82.901,113.61,47.709,175.151-35.192,61.541-113.61,82.901-175.151,47.709-39.971-22.857-64.637-65.373-64.642-111.418ZM306.542,110.354l-37.271-25.329-8.442,44.263-8.454-44.263-37.271,25.329,25.333-37.267-44.254-8.442,44.267-8.442-25.333-37.271,37.271,25.333L260.83,0l8.442,44.267,37.271-25.333-25.333,37.271,44.267,8.442-44.267,8.442,25.333,37.267ZM615.995,264.077v48.279c0,7.952.805,13.729,2.414,17.324,1.607,3.599,4.545,6.013,8.805,7.242,4.26,1.233,11.027,1.846,20.306,1.846v6.532c-25.56-.568-45.062-.852-58.503-.852-8.902,0-21.301.19-37.205.567l-13.631.284v-5.68c6.057-.378,10.459-1.137,13.205-2.272,2.742-1.136,4.588-3.311,5.539-6.532.945-3.217,1.42-8.422,1.42-15.619v-140.864c0-7.193-.523-12.398-1.562-15.62-1.043-3.218-2.889-5.396-5.539-6.532-2.652-1.136-7.006-1.891-13.062-2.271v-5.681c10.791.568,27.072.853,48.848.853l32.66-.284c3.785-.187,8.139-.284,13.064-.284,28.017,0,49.273,5.067,63.757,15.194,14.482,10.131,21.725,23.714,21.725,40.754,0,10.415-2.84,20.403-8.52,29.962-5.68,9.562-15.336,17.563-28.969,23.998-13.631,6.438-31.713,9.656-54.242,9.656h-10.51ZM621.534,151.896c-2.18,1.327-3.648,3.692-4.402,7.101-.758,3.407-1.137,8.52-1.137,15.336v84.063h7.668c13.252,0,22.389-4.921,27.406-14.768,5.016-9.843,7.527-23.19,7.527-40.044,0-18.362-2.086-31.901-6.248-40.612-4.168-8.706-11.173-13.063-21.017-13.063-4.357,0-7.623.665-9.797,1.987ZM850.578,212.247c12.683,12.212,19.028,32.047,19.028,59.498s-6.346,47.241-19.028,59.355c-12.687,12.119-30.672,18.176-53.96,18.176s-41.277-6.057-53.96-18.176c-12.687-12.114-19.028-31.901-19.028-59.355s6.342-47.286,19.028-59.498c12.683-12.212,30.672-18.318,53.96-18.318s41.273,6.106,53.96,18.318ZM782.133,217.5c-3.599,11.928-5.396,30.011-5.396,54.244s1.797,42.271,5.396,54.102c3.595,11.835,8.423,17.75,14.484,17.75s10.885-5.915,14.484-17.75c3.594-11.83,5.396-29.864,5.396-54.102s-1.802-42.316-5.396-54.244c-3.6-11.928-8.427-17.893-14.484-17.893s-10.89,5.965-14.484,17.893ZM1000.073,202.449c4.068,5.68,6.105,12.402,6.105,20.163,0,8.521-2.414,15.292-7.242,20.307-4.828,5.019-11.125,7.525-18.886,7.525-8.143,0-14.391-1.846-18.744-5.537-4.357-3.692-6.532-8.662-6.532-14.91,0-11.17,4.828-19.974,14.484-26.412-3.408,0-6.438.665-9.088,1.988-4.735,2.085-8.711,5.444-11.928,10.081-3.222,4.643-4.828,9.705-4.828,15.194v85.2c0,8.901,1.846,15.008,5.538,18.318,3.691,3.314,9.984,4.97,18.886,4.97v5.964c-2.463,0-4.544-.093-6.248-.284-19.88-.567-33.135-.852-39.76-.852-5.871,0-19.028.284-39.477.852-1.518.191-3.505.284-5.964.284v-5.964c5.866,0,9.984-1.465,12.354-4.402,2.365-2.933,3.55-8.28,3.55-16.046v-90.028c0-8.706-1.185-15.052-3.55-19.027-2.37-3.977-6.488-5.964-12.354-5.964v-5.965c6.058.568,11.928.853,17.608.853,19.688,0,36.161-1.322,49.416-3.976v20.447c7.193-14.2,19.405-21.3,36.636-21.3,9.274,0,15.948,2.84,20.022,8.521ZM1082.798,197.904h27.832v5.681h-27.832v117.859c0,3.79.661,6.439,1.987,7.952,1.322,1.518,3.502,2.272,6.532,2.272,2.272,0,4.828-.661,7.668-1.988,2.84-1.322,5.396-3.408,7.668-6.248l4.26,3.408c-8.71,14.959-22.151,22.436-40.327,22.436-13.064,0-22.818-3.222-29.253-9.655-3.976-3.977-6.58-8.897-7.81-14.769-1.233-5.866-1.846-14.103-1.846-24.708v-96.56h-21.584v-5.681h21.584v-33.512c10.224,0,19.454-.994,27.689-2.981,8.236-1.988,16.046-5.157,23.431-9.515v46.008ZM1196.139,196.342c6.532,1.61,11.503,3.363,14.91,5.254,2.081,1.136,3.785,1.704,5.112,1.704,3.976,0,6.341-3.026,7.1-9.088h5.681c-.759,9.847-1.137,26.887-1.137,51.12h-5.68c-1.518-12.496-5.067-23.049-10.649-31.666-5.587-8.613-13.682-12.922-24.282-12.922-4.735,0-8.711,1.42-11.929,4.26-3.221,2.84-4.827,6.723-4.827,11.644,0,6.248,2.081,11.786,6.248,16.614,4.162,4.828,10.694,10.748,19.596,17.75.377.19,3.124,2.37,8.236,6.532,10.601,8.711,18.362,16.428,23.287,23.146,4.922,6.724,7.385,15.008,7.385,24.851,0,8.333-2.557,15.859-7.668,22.578-5.112,6.723-12.07,11.928-20.874,15.62-8.805,3.691-18.416,5.537-28.826,5.537-11.928,0-21.682-2.369-29.252-7.1-3.222-1.704-5.871-2.934-7.952-3.692-2.086-.754-4.167-1.136-6.248-1.136-3.599,0-6.248,3.315-7.952,9.94h-5.68c.754-10.792,1.136-29.723,1.136-56.8h5.68c1.704,15.526,5.867,28.022,12.496,37.487,6.626,9.47,14.955,14.2,24.992,14.2,4.73,0,8.662-1.322,11.786-3.976,3.124-2.649,4.686-6.532,4.686-11.645,0-5.298-1.091-10.033-3.266-14.2-2.179-4.162-4.828-7.903-7.952-11.218-3.124-3.311-8.191-8.094-15.193-14.342-7.952-7.384-14.014-13.25-18.177-17.608-4.166-4.353-7.717-9.416-10.649-15.193-2.938-5.773-4.402-12.163-4.402-19.17,0-8.139,2.458-15.336,7.384-21.584,4.922-6.248,11.453-11.027,19.597-14.343,8.138-3.31,16.942-4.97,26.411-4.97,7.385,0,14.343.808,20.874,2.414ZM1482.265,334.934c2.365,2.938,6.483,4.402,12.354,4.402v5.964c-20.447-.754-33.702-1.136-39.76-1.136s-18.558.382-37.487,1.136v-5.964c3.785,0,6.434-1.42,7.951-4.26,1.514-2.841,2.272-8.236,2.272-16.188v-92.3c0-6.058-1.092-10.553-3.266-13.49-2.18-2.933-5.729-4.401-10.65-4.401s-9.421,2.085-13.49,6.247c-4.073,4.167-6.581,9.089-7.525,14.769.377,4.544.567,8.617.567,12.212v76.964c0,7.952.945,13.348,2.84,16.188,1.891,2.84,5.299,4.26,10.225,4.26v5.964c-18.936-.754-31.24-1.136-36.92-1.136-6.062,0-18.558.382-37.488,1.136v-5.964c3.785,0,6.435-1.465,7.952-4.402,1.513-2.933,2.271-8.28,2.271-16.046v-92.3c0-6.058-.852-10.553-2.556-13.49-1.704-2.933-4.544-4.401-8.521-4.401-5.493,0-10.272,1.943-14.342,5.821-4.073,3.883-6.105,8.76-6.105,14.626v89.744c0,7.952.754,13.348,2.271,16.188,1.514,2.84,4.163,4.26,7.952,4.26v5.964c-17.422-.754-28.968-1.136-34.647-1.136-6.439,0-20.64.382-42.601,1.136v-5.964c5.866,0,9.984-1.465,12.354-4.402,2.365-2.933,3.55-8.28,3.55-16.046v-90.028c0-8.706-1.185-15.052-3.55-19.027-2.37-3.977-6.488-5.964-12.354-5.964v-5.965c6.058.568,11.928.853,17.608.853,19.688,0,36.161-1.322,49.416-3.976v20.447c7.952-14.2,22.054-21.3,42.315-21.3,15.146,0,25.845,3.79,32.093,11.36,2.84,3.408,4.921,7.858,6.247,13.348,4.73-9.088,11.027-15.478,18.887-19.17,7.854-3.692,17.275-5.538,28.258-5.538,15.146,0,25.844,3.79,32.092,11.36,2.84,3.408,4.921,8.001,6.248,13.773,1.322,5.778,1.988,13.397,1.988,22.862v76.964c0,7.766,1.181,13.113,3.55,16.046ZM1626.363,212.247c12.683,12.212,19.028,32.047,19.028,59.498s-6.346,47.241-19.028,59.355c-12.687,12.119-30.672,18.176-53.96,18.176s-41.277-6.057-53.96-18.176c-12.687-12.114-19.028-31.901-19.028-59.355s6.342-47.286,19.028-59.498c12.683-12.212,30.672-18.318,53.96-18.318s41.273,6.106,53.96,18.318ZM1557.918,217.5c-3.599,11.928-5.396,30.011-5.396,54.244s1.797,42.271,5.396,54.102c3.595,11.835,8.423,17.75,14.484,17.75s10.885-5.915,14.484-17.75c3.594-11.83,5.396-29.864,5.396-54.102s-1.802-42.316-5.396-54.244c-3.6-11.928-8.427-17.893-14.484-17.893s-10.89,5.965-14.484,17.893ZM1802.525,314.344c0,8.711,1.181,15.052,3.55,19.028,2.365,3.976,6.483,5.964,12.354,5.964v5.964c-5.871-.568-11.742-.852-17.608-.852-19.693,0-36.165,1.322-49.416,3.976v-20.448c-8.52,14.2-23.571,21.3-45.155,21.3-15.15,0-25.845-3.789-32.093-11.359-2.84-3.408-4.926-7.997-6.248-13.774-1.326-5.773-1.987-13.393-1.987-22.861v-72.421c0-8.706-1.186-15.052-3.551-19.027-2.369-3.977-6.487-5.964-12.354-5.964v-5.965c5.866.568,11.737.853,17.608.853,19.688,0,36.161-1.322,49.416-3.976v121.836c0,6.062,1.087,10.557,3.266,13.489,2.174,2.938,5.725,4.402,10.65,4.402,5.488,0,10.268-1.939,14.342-5.822,4.069-3.878,6.105-8.755,6.105-14.626v-85.2c0-8.706-1.185-15.052-3.55-19.027-2.369-3.977-6.487-5.964-12.354-5.964v-5.965c5.866.568,11.736.853,17.607.853,19.689,0,36.161-1.322,49.416-3.976v119.563ZM1889.626,197.904h27.832v5.681h-27.832v117.859c0,3.79.661,6.439,1.987,7.952,1.322,1.518,3.502,2.272,6.532,2.272,2.272,0,4.828-.661,7.668-1.988,2.84-1.322,5.396-3.408,7.668-6.248l4.26,3.408c-8.71,14.959-22.151,22.436-40.327,22.436-13.064,0-22.818-3.222-29.253-9.655-3.976-3.977-6.58-8.897-7.81-14.769-1.233-5.866-1.846-14.103-1.846-24.708v-96.56h-21.584v-5.681h21.584v-33.512c10.224,0,19.454-.994,27.689-2.981,8.236-1.988,16.046-5.157,23.431-9.515v46.008ZM1989.591,215.228c8.521-14.2,23.572-21.3,45.156-21.3,15.146,0,25.844,3.79,32.092,11.36,2.84,3.408,4.922,8.001,6.248,13.773,1.322,5.778,1.988,13.397,1.988,22.862v76.964c0,7.766,1.181,13.113,3.55,16.046,2.365,2.938,6.483,4.402,12.354,4.402v5.964c-20.448-.754-33.703-1.136-39.761-1.136-6.438,0-19.88.382-40.328,1.136v-5.964c4.922,0,8.33-1.465,10.225-4.402,1.891-2.933,2.84-8.28,2.84-16.046v-92.3c0-6.058-1.092-10.553-3.266-13.49-2.179-2.933-5.729-4.401-10.65-4.401-5.493,0-10.272,1.943-14.342,5.821-4.074,3.883-6.106,8.76-6.106,14.626v89.744c0,7.766.945,13.113,2.84,16.046,1.891,2.938,5.299,4.402,10.225,4.402v5.964c-18.935-.754-31.431-1.136-37.488-1.136-6.438,0-20.639.382-42.6,1.136v-5.964c5.866,0,9.984-1.465,12.354-4.402,2.365-2.933,3.55-8.28,3.55-16.046v-161.596c0-8.707-1.185-15.052-3.55-19.028-2.369-3.976-6.487-5.964-12.354-5.964v-5.964c5.866.567,11.737.852,17.607.852,19.689,0,36.161-1.322,49.416-3.976v92.016ZM2304.543,145.08c7.952,3.222,15.713,7.766,23.288,13.632,1.891,1.704,3.692,2.556,5.396,2.556,3.786,0,6.248-5.68,7.385-17.04h6.531c-.759,13.446-1.136,37.111-1.136,71h-6.532c-1.326-15.145-3.789-27.073-7.384-35.784-3.599-8.706-9.847-15.997-18.744-21.867-8.901-5.681-17.705-8.521-26.412-8.521-19.693,0-33.512,9.47-41.464,28.4-7.952,18.935-11.928,41.562-11.928,67.876s3.976,48.945,11.928,67.876c7.952,18.935,21.771,28.399,41.464,28.399,8.707,0,17.511-2.84,26.412-8.52,8.897-5.489,15.146-12.873,18.744-22.152,3.595-9.274,6.058-22.436,7.384-39.476h6.532c0,35.406.377,60.021,1.136,73.84h-6.531c-.568-6.058-1.376-10.366-2.414-12.922-1.043-2.556-2.512-3.834-4.402-3.834-1.518,0-3.506.759-5.964,2.271-8.52,6.062-16.663,10.65-24.424,13.774-7.766,3.124-17.138,4.686-28.116,4.686-21.397,0-40.142-4.068-56.232-12.212-16.095-8.138-28.591-19.924-37.487-35.357-8.902-15.43-13.349-33.841-13.349-55.238,0-20.825,4.544-39.285,13.633-55.38,9.088-16.091,21.77-28.587,38.056-37.488,16.281-8.897,34.834-13.348,55.664-13.348,11.359,0,21.016,1.61,28.968,4.828ZM2428.933,318.888c0,7.766,1.181,13.113,3.55,16.046,2.365,2.938,6.483,4.402,12.354,4.402v5.964c-20.448-.754-33.894-1.136-40.328-1.136s-20.639.382-42.6,1.136v-5.964c5.866,0,9.984-1.465,12.354-4.402,2.365-2.933,3.55-8.28,3.55-16.046v-161.596c0-8.707-1.185-15.052-3.55-19.028-2.369-3.976-6.487-5.964-12.354-5.964v-5.964c5.866.567,11.737.852,17.607.852,19.689,0,36.161-1.322,49.416-3.976v195.676ZM2522.139,318.888c0,7.766,1.18,13.113,3.55,16.046,2.365,2.938,6.483,4.402,12.354,4.402v5.964c-20.447-.754-33.894-1.136-40.327-1.136s-20.64.382-42.601,1.136v-5.964c5.866,0,9.984-1.465,12.354-4.402,2.365-2.933,3.55-8.28,3.55-16.046v-90.028c0-8.706-1.185-15.052-3.55-19.027-2.37-3.977-6.488-5.964-12.354-5.964v-5.965c6.058.568,11.928.853,17.608.853,19.688,0,36.161-1.322,49.416-3.976v124.107ZM2517.737,129.46c5.396,4.167,8.094,10.224,8.094,18.176s-2.697,14.014-8.094,18.176c-5.396,4.167-13.02,6.248-22.862,6.248-10.037,0-17.705-2.081-23.004-6.248-5.303-4.162-7.952-10.224-7.952-18.176s2.649-14.009,7.952-18.176c5.299-4.162,12.967-6.248,23.004-6.248,9.843,0,17.467,2.086,22.862,6.248ZM2787.05,334.934c2.365,2.938,6.483,4.402,12.354,4.402v5.964c-20.447-.754-33.702-1.136-39.76-1.136s-18.558.382-37.487,1.136v-5.964c3.785,0,6.434-1.42,7.951-4.26,1.514-2.841,2.272-8.236,2.272-16.188v-92.3c0-6.058-1.092-10.553-3.266-13.49-2.18-2.933-5.729-4.401-10.65-4.401s-9.421,2.085-13.49,6.247c-4.073,4.167-6.581,9.089-7.525,14.769.377,4.544.567,8.617.567,12.212v76.964c0,7.952.945,13.348,2.84,16.188,1.891,2.84,5.299,4.26,10.225,4.26v5.964c-18.936-.754-31.24-1.136-36.92-1.136-6.062,0-18.558.382-37.488,1.136v-5.964c3.785,0,6.435-1.465,7.952-4.402,1.513-2.933,2.271-8.28,2.271-16.046v-92.3c0-6.058-.852-10.553-2.556-13.49-1.704-2.933-4.544-4.401-8.521-4.401-5.493,0-10.272,1.943-14.342,5.821-4.073,3.883-6.105,8.76-6.105,14.626v89.744c0,7.952.754,13.348,2.271,16.188,1.514,2.84,4.163,4.26,7.952,4.26v5.964c-17.422-.754-28.968-1.136-34.647-1.136-6.439,0-20.64.382-42.601,1.136v-5.964c5.866,0,9.984-1.465,12.354-4.402,2.365-2.933,3.55-8.28,3.55-16.046v-90.028c0-8.706-1.185-15.052-3.55-19.027-2.37-3.977-6.488-5.964-12.354-5.964v-5.965c6.058.568,11.928.853,17.608.853,19.688,0,36.161-1.322,49.416-3.976v20.447c7.952-14.2,22.054-21.3,42.315-21.3,15.146,0,25.845,3.79,32.093,11.36,2.84,3.408,4.921,7.858,6.247,13.348,4.73-9.088,11.027-15.478,18.887-19.17,7.854-3.692,17.275-5.538,28.258-5.538,15.146,0,25.844,3.79,32.092,11.36,2.84,3.408,4.921,8.001,6.248,13.773,1.322,5.778,1.988,13.397,1.988,22.862v76.964c0,7.766,1.181,13.113,3.55,16.046ZM2814.849,337.491c-6.154-6.532-9.229-14.72-9.229-24.566,0-8.521,2.223-15.571,6.674-21.158,4.446-5.582,9.7-9.891,15.762-12.922,6.058-3.026,13.916-6.15,23.572-9.372,10.225-3.408,17.701-6.532,22.437-9.372,4.73-2.84,7.1-6.815,7.1-11.928v-25.276c0-6.057-1.518-11.453-4.544-16.188-3.031-4.73-8.236-7.101-15.62-7.101-5.871,0-11.174,1.611-15.904,4.828,6.435,2.272,11.219,5.636,14.343,10.082,3.124,4.451,4.686,9.421,4.686,14.91,0,7.384-2.604,13.304-7.81,17.75-5.21,4.451-11.502,6.674-18.887,6.674s-13.206-2.316-17.466-6.958c-4.26-4.637-6.39-10.552-6.39-17.75,0-5.68,1.42-10.601,4.26-14.768,2.84-4.162,7.286-7.952,13.348-11.36,10.602-6.057,25.747-9.088,45.44-9.088,10.41,0,19.405.994,26.979,2.982,7.571,1.987,14.01,5.729,19.312,11.218,3.785,3.976,6.292,8.946,7.526,14.91,1.229,5.964,1.846,14.248,1.846,24.85v76.112c0,4.734.328,7.952.994,9.656.661,1.703,1.846,2.556,3.55,2.556,1.322,0,2.742-.426,4.26-1.278,1.514-.852,2.934-1.846,4.26-2.981l2.841,4.828c-8.144,7.006-19.787,10.508-34.933,10.508-11.359,0-19.312-1.944-23.855-5.822s-7.007-9.133-7.385-15.762c-8.901,14.391-22.151,21.584-39.76,21.584-12.118,0-21.256-3.267-27.406-9.798ZM2881.164,319.741v-59.925c-1.704,2.841-4.828,6.532-9.372,11.076-5.112,4.926-8.995,9.705-11.644,14.342-2.654,4.642-3.977,10.935-3.977,18.887,0,13.632,4.828,20.447,14.484,20.447,3.976,0,7.477-1.605,10.508-4.827ZM3013.136,197.904h27.832v5.681h-27.832v117.859c0,3.79.661,6.439,1.987,7.952,1.322,1.518,3.502,2.272,6.532,2.272,2.272,0,4.828-.661,7.668-1.988,2.84-1.322,5.396-3.408,7.668-6.248l4.26,3.408c-8.71,14.959-22.151,22.436-40.327,22.436-13.064,0-22.818-3.222-29.253-9.655-3.976-3.977-6.58-8.897-7.81-14.769-1.233-5.866-1.846-14.103-1.846-24.708v-96.56h-21.584v-5.681h21.584v-33.512c10.224,0,19.454-.994,27.689-2.981,8.236-1.988,16.046-5.157,23.431-9.515v46.008ZM3164.249,299.292l4.828,1.704c-4.166,13.255-11.218,24.614-21.157,34.08-9.94,9.47-22.676,14.199-38.198,14.199-19.88,0-35.784-6.15-47.712-18.46-11.929-12.305-17.893-31.994-17.893-59.071,0-25.938,6.674-45.392,20.022-58.362,13.348-12.967,31-19.454,52.966-19.454,35.784,0,53.676,21.207,53.676,63.616h-73.271c-.191,2.271-.284,5.68-.284,10.224,0,18.176,3.168,31.147,9.514,38.908,6.342,7.766,14.059,11.644,23.146,11.644,13.818,0,25.275-6.341,34.363-19.027ZM3096.373,252.148h32.944c.187-15.145-.9-27.548-3.266-37.204-2.37-9.655-6.013-14.483-10.935-14.483-10.605,0-16.854,17.23-18.744,51.688ZM3431.914,334.934c2.934,2.938,5.822,4.5,8.662,4.687v5.68c-13.632-.568-30.862-.852-51.688-.852-21.584,0-37.488.283-47.712.852v-5.68c7.193-.378,12.305-1.278,15.336-2.698,3.026-1.42,4.544-3.928,4.544-7.526,0-3.407-1.136-7.952-3.408-13.632l-16.756-46.576h-57.368l-4.828,12.78c-6.248,16.095-9.372,28.4-9.372,36.92,0,7.766,2.175,13.064,6.532,15.904,4.354,2.84,10.792,4.45,19.312,4.828v5.68c-14.2-.568-26.604-.852-37.204-.852-8.902,0-16.188.283-21.868.852v-5.68c4.734-.755,9.181-3.692,13.348-8.805,4.162-5.111,8.423-13.25,12.78-24.424l63.048-162.164c6.058.382,11.076.568,15.052.568,3.785,0,8.707-.187,14.769-.568l68.728,177.216c2.459,6.062,5.156,10.558,8.094,13.49ZM3338.905,263.508l-25.844-71-27.264,71h53.107ZM3532.164,196.342c6.532,1.61,11.879,3.647,16.046,6.106,5.298,3.03,9.465,7.1,12.496,12.212,3.026,5.111,4.544,10.89,4.544,17.323,0,7.952-2.556,14.533-7.668,19.738-5.112,5.21-11.645,7.811-19.596,7.811-8.144,0-14.533-2.316-19.171-6.958-4.642-4.638-6.958-10.837-6.958-18.603,0-6.815,2.224-12.824,6.675-18.034,4.446-5.205,9.984-8.662,16.613-10.365-2.84-2.272-6.629-3.408-11.359-3.408-12.119,0-20.639,6.487-25.561,19.454-4.926,12.971-7.384,28.355-7.384,46.149,0,18.176,3.408,31.147,10.224,38.908,6.816,7.766,15.239,11.644,25.276,11.644,13.818,0,25.276-6.341,34.364-19.027l4.828,1.704c-4.167,13.255-11.219,24.614-21.158,34.08-9.94,9.47-22.676,14.199-38.198,14.199-20.639,0-37.204-6.15-49.7-18.46-12.496-12.305-18.744-31.994-18.744-59.071,0-25.938,6.675-45.392,20.022-58.362,13.348-12.967,31-19.454,52.966-19.454,7.762,0,14.91.808,21.442,2.414ZM3641.103,197.904h27.832v5.681h-27.832v117.859c0,3.79.661,6.439,1.987,7.952,1.322,1.518,3.502,2.272,6.532,2.272,2.272,0,4.828-.661,7.668-1.988,2.84-1.322,5.396-3.408,7.668-6.248l4.26,3.408c-8.71,14.959-22.151,22.436-40.327,22.436-13.064,0-22.818-3.222-29.253-9.655-3.976-3.977-6.58-8.897-7.81-14.769-1.233-5.866-1.846-14.103-1.846-24.708v-96.56h-21.584v-5.681h21.584v-33.512c10.224,0,19.454-.994,27.689-2.981,8.236-1.988,16.046-5.157,23.431-9.515v46.008ZM3744.079,318.888c0,7.766,1.18,13.113,3.55,16.046,2.365,2.938,6.483,4.402,12.354,4.402v5.964c-20.447-.754-33.894-1.136-40.327-1.136s-20.64.382-42.601,1.136v-5.964c5.866,0,9.984-1.465,12.354-4.402,2.365-2.933,3.55-8.28,3.55-16.046v-90.028c0-8.706-1.185-15.052-3.55-19.027-2.37-3.977-6.488-5.964-12.354-5.964v-5.965c6.058.568,11.928.853,17.608.853,19.688,0,36.161-1.322,49.416-3.976v124.107ZM3739.676,129.46c5.396,4.167,8.094,10.224,8.094,18.176s-2.697,14.014-8.094,18.176c-5.396,4.167-13.02,6.248-22.862,6.248-10.037,0-17.705-2.081-23.004-6.248-5.303-4.162-7.952-10.224-7.952-18.176s2.649-14.009,7.952-18.176c5.299-4.162,12.967-6.248,23.004-6.248,9.843,0,17.467,2.086,22.862,6.248ZM3892.493,212.247c12.683,12.212,19.028,32.047,19.028,59.498s-6.346,47.241-19.028,59.355c-12.687,12.119-30.672,18.176-53.96,18.176s-41.277-6.057-53.96-18.176c-12.687-12.114-19.028-31.901-19.028-59.355s6.342-47.286,19.028-59.498c12.683-12.212,30.672-18.318,53.96-18.318s41.273,6.106,53.96,18.318ZM3824.048,217.5c-3.599,11.928-5.396,30.011-5.396,54.244s1.797,42.271,5.396,54.102c3.595,11.835,8.423,17.75,14.484,17.75s10.885-5.915,14.484-17.75c3.594-11.83,5.396-29.864,5.396-54.102s-1.802-42.316-5.396-54.244c-3.6-11.928-8.427-17.893-14.484-17.893s-10.89,5.965-14.484,17.893ZM4062.578,205.288c2.84,3.408,4.921,8.001,6.248,13.773,1.322,5.778,1.987,13.397,1.987,22.862v76.964c0,7.766,1.181,13.113,3.551,16.046,2.364,2.938,6.482,4.402,12.354,4.402v5.964c-20.448-.754-33.703-1.136-39.76-1.136-6.439,0-19.88.382-40.328,1.136v-5.964c4.921,0,8.329-1.465,10.224-4.402,1.891-2.933,2.84-8.28,2.84-16.046v-92.3c0-6.058-1.091-10.553-3.266-13.49-2.179-2.933-5.729-4.401-10.65-4.401-5.493,0-10.272,1.943-14.342,5.821-4.073,3.883-6.105,8.76-6.105,14.626v89.744c0,7.766.945,13.113,2.84,16.046,1.891,2.938,5.298,4.402,10.224,4.402v5.964c-18.935-.754-31.431-1.136-37.487-1.136-6.439,0-20.64.382-42.601,1.136v-5.964c5.866,0,9.984-1.465,12.354-4.402,2.365-2.933,3.55-8.28,3.55-16.046v-90.028c0-8.706-1.185-15.052-3.55-19.027-2.37-3.977-6.488-5.964-12.354-5.964v-5.965c6.058.568,11.928.853,17.608.853,19.688,0,36.161-1.322,49.416-3.976v20.447c8.52-14.2,23.571-21.3,45.155-21.3,15.146,0,25.845,3.79,32.093,11.36Z"/>
  </g>
  <g id="d" data-name="container-guides">
    <rect class="e" x="389.19" y="213.907" width="148.991" height="30.857"/>
  </g>
</svg>